<?xml version="1.0" encoding="utf-8"?>
<!-- Generator: Adobe Illustrator 17.0.0, SVG Export Plug-In . SVG Version: 6.00 Build 0)  -->
<!DOCTYPE svg PUBLIC "-//W3C//DTD SVG 1.1//EN" "http://www.w3.org/Graphics/SVG/1.1/DTD/svg11.dtd">
<svg version="1.1" id="Capa_1" xmlns="http://www.w3.org/2000/svg" xmlns:xlink="http://www.w3.org/1999/xlink" x="0px" y="0px"
	 width="523.423px" height="101.641px" viewBox="0 0 523.423 101.641" enable-background="new 0 0 523.423 101.641"
	 xml:space="preserve">
<g>
	<path fill="#FFFFFF" d="M55.828,65.776c-14.907-0.383-26.182-5.979-35.623-12.173L0,101.641h55.828V65.776z"/>
	<path fill="#FFFFFF" d="M62.234,65.776c14.907-0.383,26.182-5.979,35.623-12.173l20.205,48.039H62.234V65.776z"/>
</g>
<path fill="#FFFFFF" d="M86.878,10.759c-7.629-4.161-17.702-6.453-28.364-6.453c-10.16,0-19.884,2.107-27.381,5.934l-1.958-3.836
	C37.267,2.274,47.686,0,58.514,0c11.37,0,22.176,2.478,30.427,6.978L86.878,10.759z"/>
<g>
	<g>
		<path fill="#FFFFFF" d="M167.464,36.921v4.705h-14.098v8.82h11.107v4.551h-11.107v8.995h14.098v4.728h-20.057v-31.8H167.464z"/>
		<path fill="#FFFFFF" d="M180.703,63.838h12.734v4.882h-18.649v-31.8h5.915V63.838z"/>
		<path fill="#FFFFFF" d="M240.917,52.821c0,2.33-0.388,4.49-1.167,6.477c-0.777,1.987-1.868,3.705-3.275,5.156
			c-1.408,1.451-3.102,2.584-5.081,3.399c-1.979,0.813-4.172,1.221-6.575,1.221c-2.405,0-4.6-0.408-6.586-1.221
			c-1.987-0.814-3.689-1.947-5.102-3.399c-1.416-1.451-2.511-3.17-3.288-5.156c-0.777-1.987-1.165-4.147-1.165-6.477
			c0-2.332,0.388-4.49,1.165-6.477s1.872-3.706,3.288-5.158c1.414-1.451,3.116-2.583,5.102-3.397
			c1.987-0.814,4.181-1.221,6.586-1.221c2.404,0,4.596,0.41,6.575,1.231c1.979,0.821,3.672,1.954,5.081,3.399
			c1.407,1.444,2.498,3.159,3.275,5.145C240.529,48.33,240.917,50.489,240.917,52.821z M234.847,52.821
			c0-1.745-0.231-3.311-0.693-4.696c-0.462-1.385-1.126-2.561-1.99-3.529s-1.917-1.707-3.155-2.221
			c-1.24-0.514-2.636-0.77-4.19-0.77s-2.955,0.256-4.2,0.77c-1.246,0.514-2.305,1.253-3.179,2.221
			c-0.872,0.968-1.543,2.144-2.012,3.529c-0.469,1.385-0.703,2.951-0.703,4.696s0.234,3.309,0.703,4.694
			c0.469,1.385,1.14,2.559,2.012,3.519c0.873,0.961,1.933,1.698,3.179,2.21c1.246,0.514,2.647,0.77,4.2,0.77s2.949-0.256,4.19-0.77
			c1.238-0.512,2.291-1.249,3.155-2.21c0.864-0.959,1.528-2.133,1.99-3.519C234.616,56.13,234.847,54.566,234.847,52.821z"/>
		<path fill="#FFFFFF" d="M247.777,68.72v-31.8h10.974c2.081,0,3.86,0.197,5.333,0.592c1.473,0.397,2.683,0.961,3.628,1.695
			c0.947,0.732,1.639,1.62,2.08,2.66c0.438,1.042,0.659,2.214,0.659,3.519c0,0.748-0.109,1.464-0.329,2.146
			c-0.22,0.68-0.56,1.319-1.022,1.913c-0.464,0.592-1.049,1.131-1.761,1.616c-0.711,0.483-1.557,0.895-2.54,1.231
			c4.369,0.983,6.554,3.343,6.554,7.082c0,1.348-0.256,2.595-0.77,3.739c-0.514,1.144-1.262,2.13-2.242,2.957
			c-0.983,0.829-2.192,1.478-3.63,1.947c-1.437,0.469-3.078,0.703-4.925,0.703H247.777z M253.694,50.687h4.728
			c2.008,0,3.533-0.367,4.574-1.101c1.04-0.732,1.561-1.897,1.561-3.495c0-1.657-0.469-2.838-1.407-3.542
			c-0.94-0.703-2.405-1.056-4.399-1.056h-5.058V50.687z M253.694,54.777v9.326h6.003c1.101,0,2.021-0.132,2.762-0.397
			c0.739-0.263,1.333-0.616,1.781-1.054c0.447-0.44,0.77-0.954,0.968-1.541c0.197-0.585,0.295-1.208,0.295-1.868
			c0-0.689-0.109-1.308-0.329-1.858c-0.22-0.551-0.564-1.02-1.033-1.409c-0.471-0.388-1.072-0.685-1.804-0.891
			c-0.734-0.204-1.62-0.308-2.661-0.308H253.694z"/>
		<path fill="#FFFFFF" d="M295.675,42.703c-0.161,0.324-0.347,0.549-0.56,0.682s-0.465,0.199-0.759,0.199s-0.623-0.115-0.99-0.342
			c-0.367-0.227-0.8-0.48-1.298-0.759c-0.498-0.277-1.081-0.53-1.749-0.759c-0.666-0.226-1.455-0.34-2.364-0.34
			c-0.82,0-1.536,0.098-2.144,0.297c-0.609,0.197-1.12,0.472-1.539,0.825c-0.417,0.351-0.728,0.773-0.934,1.264
			c-0.206,0.492-0.308,1.031-0.308,1.616c0,0.748,0.209,1.373,0.626,1.87c0.419,0.499,0.972,0.923,1.661,1.276
			c0.689,0.351,1.473,0.666,2.353,0.945c0.879,0.279,1.777,0.576,2.694,0.891c0.916,0.315,1.813,0.682,2.694,1.099
			c0.879,0.419,1.664,0.945,2.353,1.584c0.689,0.637,1.242,1.417,1.661,2.341c0.417,0.925,0.626,2.046,0.626,3.366
			c0,1.435-0.247,2.781-0.737,4.034c-0.49,1.255-1.21,2.346-2.155,3.277c-0.947,0.932-2.101,1.664-3.465,2.2
			c-1.362,0.535-2.924,0.804-4.684,0.804c-1.011,0-2.008-0.1-2.991-0.297c-0.983-0.199-1.924-0.481-2.826-0.847
			c-0.902-0.367-1.745-0.807-2.529-1.321c-0.784-0.512-1.484-1.085-2.099-1.715l1.715-2.837c0.161-0.206,0.356-0.378,0.583-0.517
			c0.227-0.14,0.48-0.209,0.759-0.209c0.365,0,0.762,0.15,1.187,0.451c0.426,0.301,0.927,0.635,1.507,1
			c0.578,0.367,1.26,0.702,2.046,1c0.784,0.301,1.725,0.451,2.826,0.451c1.686,0,2.991-0.399,3.914-1.197
			c0.923-0.8,1.385-1.947,1.385-3.443c0-0.834-0.209-1.516-0.628-2.044c-0.417-0.528-0.97-0.972-1.659-1.332
			c-0.689-0.358-1.473-0.662-2.353-0.913c-0.879-0.249-1.774-0.519-2.683-0.813s-1.802-0.646-2.683-1.056
			c-0.879-0.41-1.664-0.947-2.353-1.605c-0.689-0.66-1.242-1.485-1.659-2.475c-0.419-0.99-0.628-2.21-0.628-3.662
			c0-1.158,0.231-2.285,0.693-3.386c0.462-1.099,1.136-2.074,2.024-2.924c0.886-0.85,1.976-1.532,3.266-2.046
			c1.289-0.514,2.763-0.77,4.421-0.77c1.876,0,3.604,0.294,5.188,0.879c1.584,0.587,2.933,1.408,4.047,2.464L295.675,42.703z"/>
		<path fill="#FFFFFF" d="M324.486,36.921v4.705h-14.098v8.82h11.107v4.551h-11.107v8.995h14.098v4.728h-20.057v-31.8H324.486z"/>
		<path fill="#FFFFFF" d="M337.921,56.294V68.72h-5.915v-31.8h9.698c2.169,0,4.027,0.224,5.575,0.669
			c1.546,0.447,2.815,1.076,3.803,1.881c0.99,0.807,1.716,1.77,2.178,2.892c0.462,1.122,0.693,2.357,0.693,3.705
			c0,1.07-0.158,2.083-0.472,3.035c-0.315,0.954-0.77,1.818-1.364,2.595s-1.326,1.459-2.2,2.046
			c-0.872,0.587-1.865,1.056-2.98,1.407c0.748,0.426,1.392,1.034,1.936,1.826l7.961,11.744h-5.323c-0.514,0-0.949-0.102-1.308-0.308
			c-0.36-0.206-0.664-0.498-0.913-0.881l-6.686-10.182c-0.249-0.381-0.524-0.651-0.823-0.814c-0.301-0.161-0.745-0.242-1.332-0.242
			H337.921z M337.921,52.051h3.694c1.115,0,2.087-0.14,2.915-0.419c0.827-0.277,1.509-0.662,2.044-1.154
			c0.535-0.49,0.936-1.074,1.199-1.749c0.265-0.673,0.396-1.414,0.396-2.221c0-1.613-0.532-2.851-1.595-3.717
			c-1.063-0.864-2.686-1.298-4.87-1.298h-3.783V52.051z"/>
		<path fill="#FFFFFF" d="M359.693,36.921h4.773c0.512,0,0.931,0.123,1.253,0.372c0.322,0.251,0.564,0.573,0.727,0.968l7.476,19.397
			c0.251,0.63,0.489,1.324,0.716,2.078c0.227,0.755,0.444,1.552,0.648,2.387c0.338-1.686,0.755-3.175,1.255-4.465l7.454-19.397
			c0.132-0.336,0.367-0.644,0.705-0.923c0.336-0.277,0.753-0.417,1.253-0.417h4.773l-12.845,31.8h-5.344L359.693,36.921z"/>
		<path fill="#FFFFFF" d="M420.479,68.72h-4.574c-0.514,0-0.934-0.129-1.264-0.385c-0.331-0.256-0.569-0.575-0.716-0.957
			l-2.375-6.488h-13.172l-2.375,6.488c-0.118,0.338-0.349,0.646-0.694,0.925c-0.344,0.277-0.766,0.417-1.264,0.417h-4.596
			l12.49-31.8h6.049L420.479,68.72z M399.895,56.713h10.137l-3.869-10.579c-0.177-0.469-0.37-1.022-0.583-1.661
			c-0.213-0.637-0.422-1.33-0.626-2.078c-0.206,0.748-0.408,1.444-0.605,2.09c-0.199,0.644-0.392,1.208-0.583,1.693L399.895,56.713z
			"/>
		<path fill="#FFFFFF" d="M454.193,52.821c0,2.33-0.388,4.471-1.165,6.421c-0.779,1.949-1.87,3.628-3.277,5.036
			c-1.409,1.407-3.102,2.5-5.081,3.277c-1.979,0.777-4.172,1.165-6.575,1.165h-12.14v-31.8h12.14c2.404,0,4.596,0.392,6.575,1.176
			c1.979,0.784,3.672,1.877,5.081,3.277c1.407,1.4,2.498,3.075,3.277,5.025C453.805,48.348,454.193,50.489,454.193,52.821z
			 M448.146,52.821c0-1.745-0.234-3.311-0.705-4.696c-0.469-1.385-1.136-2.557-2.001-3.519c-0.864-0.959-1.917-1.697-3.155-2.21
			c-1.238-0.512-2.636-0.77-4.19-0.77h-6.18v22.387h6.18c1.553,0,2.951-0.256,4.19-0.77c1.238-0.512,2.291-1.249,3.155-2.21
			c0.864-0.959,1.532-2.133,2.001-3.519C447.911,56.13,448.146,54.566,448.146,52.821z"/>
		<path fill="#FFFFFF" d="M491.535,52.821c0,2.33-0.39,4.49-1.167,6.477c-0.777,1.987-1.868,3.705-3.277,5.156
			c-1.407,1.451-3.1,2.584-5.079,3.399c-1.979,0.813-4.172,1.221-6.575,1.221c-2.405,0-4.601-0.408-6.588-1.221
			c-1.987-0.814-3.687-1.947-5.101-3.399c-1.416-1.451-2.511-3.17-3.288-5.156c-0.779-1.987-1.167-4.147-1.167-6.477
			c0-2.332,0.388-4.49,1.167-6.477c0.777-1.987,1.872-3.706,3.288-5.158c1.414-1.451,3.114-2.583,5.101-3.397
			c1.987-0.814,4.183-1.221,6.588-1.221c2.404,0,4.596,0.41,6.575,1.231c1.979,0.821,3.672,1.954,5.079,3.399
			c1.409,1.444,2.5,3.159,3.277,5.145S491.535,50.489,491.535,52.821z M485.465,52.821c0-1.745-0.231-3.311-0.693-4.696
			c-0.462-1.385-1.126-2.561-1.99-3.529c-0.866-0.968-1.917-1.707-3.155-2.221c-1.24-0.514-2.636-0.77-4.19-0.77
			c-1.555,0-2.955,0.256-4.2,0.77c-1.247,0.514-2.307,1.253-3.178,2.221s-1.543,2.144-2.012,3.529
			c-0.471,1.385-0.705,2.951-0.705,4.696s0.234,3.309,0.705,4.694c0.469,1.385,1.14,2.559,2.012,3.519
			c0.872,0.961,1.931,1.698,3.178,2.21c1.246,0.514,2.645,0.77,4.2,0.77c1.553,0,2.949-0.256,4.19-0.77
			c1.238-0.512,2.289-1.249,3.155-2.21c0.864-0.959,1.528-2.133,1.99-3.519C485.234,56.13,485.465,54.566,485.465,52.821z"/>
		<path fill="#FFFFFF" d="M504.509,56.294V68.72h-5.915v-31.8h9.698c2.169,0,4.027,0.224,5.575,0.669
			c1.546,0.447,2.815,1.076,3.803,1.881c0.99,0.807,1.716,1.77,2.178,2.892c0.462,1.122,0.693,2.357,0.693,3.705
			c0,1.07-0.157,2.083-0.472,3.035c-0.315,0.954-0.77,1.818-1.364,2.595s-1.326,1.459-2.2,2.046
			c-0.872,0.587-1.865,1.056-2.98,1.407c0.748,0.426,1.392,1.034,1.936,1.826l7.961,11.744H518.1c-0.514,0-0.949-0.102-1.308-0.308
			c-0.36-0.206-0.664-0.498-0.913-0.881l-6.686-10.182c-0.249-0.381-0.524-0.651-0.823-0.814c-0.301-0.161-0.745-0.242-1.332-0.242
			H504.509z M504.509,52.051h3.694c1.115,0,2.087-0.14,2.915-0.419c0.827-0.277,1.509-0.662,2.044-1.154
			c0.535-0.49,0.936-1.074,1.199-1.749c0.265-0.673,0.396-1.414,0.396-2.221c0-1.613-0.532-2.851-1.595-3.717
			c-1.063-0.864-2.686-1.298-4.87-1.298h-3.783V52.051z"/>
	</g>
</g>
<path fill="#FFFFFF" d="M59.031,11.926c-19.338,0-36.122,9.532-44.56,23.51c8.438,13.978,25.222,23.51,44.56,23.51
	s36.122-9.532,44.56-23.51C95.153,21.459,78.37,11.926,59.031,11.926z M59.621,49.508c-7.543,0-13.679-6.136-13.679-13.679
	c0-7.542,6.136-13.678,13.679-13.678c0.549,0,1.122,0.042,1.802,0.132c0.147,0.019,0.266,0.129,0.297,0.274
	c0.031,0.145-0.032,0.294-0.158,0.372c-2.186,1.36-3.491,3.691-3.491,6.235c0,4.058,3.301,7.36,7.359,7.36
	c2.889,0,5.523-1.713,6.709-4.364c0.061-0.135,0.209-0.214,0.348-0.206c0.147,0.011,0.273,0.114,0.312,0.257
	c0.331,1.206,0.499,2.424,0.499,3.619C73.299,43.372,67.163,49.508,59.621,49.508z"/>
</svg>
