<?xml version="1.0" encoding="utf-8"?>
<!-- Generator: Adobe Illustrator 17.0.0, SVG Export Plug-In . SVG Version: 6.00 Build 0)  -->
<!DOCTYPE svg PUBLIC "-//W3C//DTD SVG 1.1//EN" "http://www.w3.org/Graphics/SVG/1.1/DTD/svg11.dtd">
<svg version="1.1" id="Capa_1" xmlns="http://www.w3.org/2000/svg" xmlns:xlink="http://www.w3.org/1999/xlink" x="0px" y="0px"
	 width="205.174px" height="165.71px" viewBox="0 0 205.174 165.71" enable-background="new 0 0 205.174 165.71"
	 xml:space="preserve">
<g>
	<path fill="#FFFFFF" d="M93.618,65.776c-14.907-0.383-26.182-5.979-35.623-12.173L37.79,101.641h55.828V65.776z"/>
	<path fill="#FFFFFF" d="M100.024,65.776c14.907-0.383,26.182-5.979,35.623-12.173l20.205,48.039h-55.828V65.776z"/>
</g>
<path fill="#FFFFFF" d="M124.667,10.759c-7.629-4.161-17.702-6.453-28.364-6.453c-10.16,0-19.884,2.107-27.381,5.934l-1.958-3.836
	C75.056,2.274,85.476,0,96.303,0c11.37,0,22.176,2.478,30.427,6.978L124.667,10.759z"/>
<g>
	<g>
		<path fill="#FFFFFF" d="M10.944,127.599v2.567H3.252v4.813h6.06v2.483h-6.06v4.908h7.692v2.58H0v-17.352L10.944,127.599
			L10.944,127.599z"/>
		<path fill="#FFFFFF" d="M18.168,142.287h6.948v2.664H14.94v-17.352h3.228V142.287z"/>
		<path fill="#FFFFFF" d="M51.024,136.275c0,1.271-0.212,2.45-0.636,3.534s-1.02,2.021-1.788,2.813s-1.692,1.41-2.772,1.854
			c-1.08,0.443-2.276,0.666-3.588,0.666s-2.51-0.223-3.594-0.666c-1.084-0.444-2.012-1.063-2.784-1.854s-1.37-1.729-1.794-2.813
			s-0.636-2.263-0.636-3.534c0-1.272,0.212-2.45,0.636-3.534s1.022-2.022,1.794-2.814s1.7-1.409,2.784-1.854
			s2.282-0.666,3.594-0.666s2.508,0.224,3.588,0.672s2.004,1.066,2.772,1.854s1.364,1.724,1.788,2.808
			C50.812,133.825,51.024,135.003,51.024,136.275z M47.712,136.275c0-0.952-0.126-1.807-0.378-2.563s-0.614-1.397-1.086-1.926
			c-0.472-0.528-1.046-0.932-1.722-1.212s-1.438-0.42-2.286-0.42s-1.612,0.14-2.292,0.42s-1.258,0.684-1.734,1.212
			s-0.842,1.17-1.098,1.926s-0.384,1.61-0.384,2.563s0.128,1.806,0.384,2.562s0.622,1.396,1.098,1.92
			c0.476,0.524,1.054,0.927,1.734,1.206c0.68,0.28,1.444,0.42,2.292,0.42s1.61-0.14,2.286-0.42c0.676-0.279,1.25-0.682,1.722-1.206
			c0.472-0.523,0.834-1.164,1.086-1.92S47.712,137.227,47.712,136.275z"/>
		<path fill="#FFFFFF" d="M54.768,144.951v-17.352h5.988c1.136,0,2.106,0.107,2.91,0.323c0.804,0.217,1.464,0.524,1.98,0.925
			c0.516,0.399,0.894,0.884,1.134,1.451c0.24,0.568,0.36,1.208,0.36,1.92c0,0.408-0.06,0.799-0.18,1.171
			c-0.12,0.371-0.306,0.72-0.558,1.044c-0.252,0.323-0.572,0.617-0.96,0.882c-0.388,0.264-0.85,0.488-1.386,0.672
			c2.384,0.536,3.576,1.824,3.576,3.864c0,0.735-0.14,1.416-0.42,2.04s-0.688,1.162-1.224,1.613
			c-0.536,0.452-1.196,0.807-1.98,1.063c-0.784,0.256-1.68,0.384-2.688,0.384L54.768,144.951L54.768,144.951z M57.996,135.111h2.58
			c1.096,0,1.928-0.2,2.496-0.601c0.568-0.399,0.852-1.035,0.852-1.907c0-0.904-0.256-1.549-0.768-1.933s-1.313-0.576-2.4-0.576
			h-2.76C57.996,130.094,57.996,135.111,57.996,135.111z M57.996,137.342v5.089h3.276c0.6,0,1.102-0.072,1.506-0.217
			c0.404-0.144,0.728-0.336,0.972-0.575c0.244-0.24,0.42-0.521,0.528-0.841c0.108-0.319,0.162-0.659,0.162-1.02
			c0-0.376-0.06-0.714-0.18-1.014c-0.12-0.301-0.308-0.557-0.564-0.769c-0.256-0.212-0.584-0.374-0.984-0.486
			c-0.4-0.111-0.884-0.168-1.452-0.168L57.996,137.342L57.996,137.342z"/>
		<path fill="#FFFFFF" d="M80.903,130.755c-0.088,0.177-0.189,0.3-0.306,0.372s-0.254,0.108-0.414,0.108s-0.34-0.063-0.54-0.187
			s-0.437-0.262-0.708-0.414c-0.271-0.151-0.59-0.289-0.954-0.414c-0.364-0.123-0.794-0.186-1.29-0.186
			c-0.448,0-0.838,0.054-1.17,0.162c-0.332,0.107-0.612,0.258-0.84,0.45c-0.228,0.191-0.398,0.422-0.51,0.689
			c-0.112,0.269-0.168,0.563-0.168,0.882c0,0.408,0.114,0.749,0.342,1.021c0.228,0.272,0.53,0.504,0.906,0.696
			c0.376,0.191,0.804,0.363,1.284,0.516s0.97,0.314,1.47,0.486s0.99,0.372,1.47,0.6c0.479,0.229,0.908,0.516,1.284,0.864
			c0.376,0.348,0.678,0.773,0.906,1.277c0.228,0.505,0.342,1.116,0.342,1.837c0,0.783-0.135,1.518-0.402,2.201
			c-0.268,0.685-0.66,1.28-1.176,1.788c-0.517,0.509-1.146,0.908-1.891,1.2c-0.744,0.292-1.596,0.438-2.556,0.438
			c-0.552,0-1.096-0.055-1.632-0.162c-0.536-0.108-1.05-0.263-1.542-0.462c-0.492-0.2-0.952-0.44-1.38-0.721
			c-0.428-0.279-0.81-0.592-1.146-0.936l0.936-1.548c0.088-0.112,0.194-0.206,0.318-0.282s0.262-0.114,0.414-0.114
			c0.2,0,0.416,0.082,0.648,0.246s0.506,0.347,0.822,0.546c0.316,0.2,0.688,0.383,1.116,0.546c0.428,0.164,0.942,0.246,1.542,0.246
			c0.92,0,1.632-0.218,2.136-0.653c0.504-0.437,0.756-1.063,0.756-1.879c0-0.455-0.114-0.827-0.343-1.115
			c-0.228-0.288-0.529-0.53-0.905-0.727c-0.376-0.195-0.804-0.361-1.284-0.498c-0.48-0.136-0.968-0.283-1.464-0.443
			s-0.984-0.353-1.464-0.576s-0.908-0.517-1.284-0.876c-0.376-0.36-0.678-0.811-0.906-1.351s-0.342-1.206-0.342-1.998
			c0-0.632,0.126-1.247,0.378-1.848c0.252-0.6,0.62-1.132,1.104-1.596s1.078-0.836,1.782-1.116c0.704-0.28,1.508-0.42,2.412-0.42
			c1.024,0,1.967,0.16,2.832,0.479c0.864,0.32,1.601,0.769,2.208,1.345L80.903,130.755z"/>
		<path fill="#FFFFFF" d="M96.624,127.599v2.567h-7.692v4.813h6.061v2.483h-6.061v4.908h7.692v2.58H85.68v-17.352L96.624,127.599
			L96.624,127.599z"/>
		<path fill="#FFFFFF" d="M103.955,138.171v6.78h-3.228v-17.352h5.292c1.184,0,2.197,0.122,3.042,0.365
			c0.844,0.244,1.536,0.587,2.075,1.026c0.54,0.44,0.937,0.966,1.188,1.578s0.378,1.286,0.378,2.021
			c0,0.584-0.086,1.137-0.258,1.656c-0.172,0.521-0.42,0.992-0.744,1.416s-0.724,0.796-1.2,1.116
			c-0.476,0.32-1.018,0.576-1.626,0.768c0.408,0.232,0.76,0.564,1.057,0.996l4.344,6.408h-2.904c-0.28,0-0.518-0.056-0.714-0.168
			s-0.362-0.271-0.498-0.48l-3.648-5.556c-0.136-0.208-0.286-0.355-0.449-0.444c-0.164-0.088-0.406-0.132-0.727-0.132h-1.38V138.171
			z M103.955,135.855h2.016c0.608,0,1.139-0.076,1.591-0.229c0.451-0.151,0.823-0.361,1.115-0.63
			c0.292-0.268,0.511-0.586,0.654-0.954c0.145-0.367,0.216-0.771,0.216-1.212c0-0.88-0.29-1.556-0.87-2.028
			s-1.465-0.708-2.657-0.708h-2.064L103.955,135.855L103.955,135.855z"/>
		<path fill="#FFFFFF" d="M115.834,127.599h2.604c0.279,0,0.508,0.067,0.684,0.203c0.176,0.137,0.308,0.313,0.396,0.528
			l4.079,10.584c0.137,0.344,0.267,0.723,0.391,1.134c0.124,0.412,0.242,0.847,0.354,1.303c0.185-0.92,0.412-1.732,0.685-2.437
			l4.067-10.584c0.072-0.184,0.2-0.352,0.385-0.504c0.184-0.151,0.411-0.228,0.684-0.228h2.604l-7.009,17.352h-2.916
			L115.834,127.599z"/>
		<path fill="#FFFFFF" d="M149.002,144.951h-2.496c-0.28,0-0.51-0.07-0.689-0.21c-0.181-0.14-0.311-0.313-0.391-0.522l-1.296-3.54
			h-7.188l-1.296,3.54c-0.064,0.185-0.19,0.353-0.379,0.505c-0.188,0.151-0.418,0.228-0.689,0.228h-2.508l6.815-17.352h3.301
			L149.002,144.951z M137.771,138.399h5.531l-2.111-5.772c-0.097-0.256-0.202-0.558-0.318-0.906s-0.23-0.726-0.342-1.134
			c-0.112,0.408-0.223,0.788-0.33,1.141c-0.108,0.352-0.214,0.659-0.318,0.924L137.771,138.399z"/>
		<path fill="#FFFFFF" d="M167.399,136.275c0,1.271-0.212,2.439-0.636,3.504c-0.425,1.063-1.021,1.979-1.788,2.748
			c-0.769,0.768-1.692,1.364-2.772,1.788s-2.276,0.636-3.588,0.636h-6.624v-17.352h6.624c1.312,0,2.508,0.214,3.588,0.642
			s2.004,1.024,2.772,1.788c0.768,0.764,1.363,1.678,1.788,2.742C167.187,133.835,167.399,135.003,167.399,136.275z
			 M164.099,136.275c0-0.952-0.128-1.807-0.385-2.563c-0.256-0.756-0.62-1.396-1.092-1.92c-0.472-0.523-1.046-0.926-1.722-1.206
			c-0.676-0.279-1.438-0.42-2.286-0.42h-3.372v12.216h3.372c0.848,0,1.61-0.14,2.286-0.42c0.676-0.279,1.25-0.682,1.722-1.206
			c0.472-0.523,0.836-1.164,1.092-1.92C163.971,138.081,164.099,137.227,164.099,136.275z"/>
		<path fill="#FFFFFF" d="M187.775,136.275c0,1.271-0.213,2.45-0.637,3.534s-1.02,2.021-1.788,2.813
			c-0.768,0.792-1.691,1.41-2.771,1.854c-1.08,0.443-2.276,0.666-3.588,0.666c-1.313,0-2.511-0.223-3.595-0.666
			c-1.084-0.444-2.012-1.063-2.783-1.854c-0.772-0.792-1.37-1.729-1.794-2.813c-0.425-1.084-0.637-2.263-0.637-3.534
			c0-1.272,0.212-2.45,0.637-3.534c0.424-1.084,1.021-2.022,1.794-2.814c0.771-0.792,1.699-1.409,2.783-1.854
			s2.282-0.666,3.595-0.666c1.312,0,2.508,0.224,3.588,0.672s2.004,1.066,2.771,1.854c0.769,0.788,1.364,1.724,1.788,2.808
			S187.775,135.003,187.775,136.275z M184.462,136.275c0-0.952-0.126-1.807-0.378-2.563s-0.614-1.397-1.086-1.926
			c-0.473-0.528-1.046-0.932-1.722-1.212c-0.677-0.28-1.438-0.42-2.286-0.42c-0.849,0-1.612,0.14-2.292,0.42
			c-0.681,0.28-1.259,0.684-1.734,1.212s-0.842,1.17-1.098,1.926c-0.257,0.756-0.385,1.61-0.385,2.563s0.128,1.806,0.385,2.562
			c0.256,0.756,0.622,1.396,1.098,1.92c0.476,0.524,1.054,0.927,1.734,1.206c0.68,0.28,1.443,0.42,2.292,0.42
			c0.848,0,1.609-0.14,2.286-0.42c0.676-0.279,1.249-0.682,1.722-1.206c0.472-0.523,0.834-1.164,1.086-1.92
			S184.462,137.227,184.462,136.275z"/>
		<path fill="#FFFFFF" d="M194.854,138.171v6.78h-3.228v-17.352h5.292c1.184,0,2.197,0.122,3.042,0.365
			c0.844,0.244,1.536,0.587,2.075,1.026c0.54,0.44,0.937,0.966,1.188,1.578s0.378,1.286,0.378,2.021
			c0,0.584-0.086,1.137-0.258,1.656c-0.172,0.521-0.42,0.992-0.744,1.416s-0.724,0.796-1.2,1.116
			c-0.476,0.32-1.018,0.576-1.626,0.768c0.408,0.232,0.76,0.564,1.057,0.996l4.344,6.408h-2.904c-0.28,0-0.518-0.056-0.714-0.168
			s-0.362-0.271-0.498-0.48l-3.648-5.556c-0.136-0.208-0.286-0.355-0.449-0.444c-0.164-0.088-0.406-0.132-0.727-0.132h-1.38V138.171
			z M194.854,135.855h2.016c0.608,0,1.139-0.076,1.591-0.229c0.451-0.151,0.823-0.361,1.115-0.63
			c0.292-0.268,0.511-0.586,0.654-0.954c0.145-0.367,0.216-0.771,0.216-1.212c0-0.88-0.29-1.556-0.87-2.028
			s-1.466-0.708-2.657-0.708h-2.064v5.761H194.854z"/>
	</g>
	<g>
		<path fill="#FFFFFF" d="M39.772,158.354c-0.036,0.06-0.074,0.104-0.114,0.135s-0.092,0.045-0.156,0.045
			c-0.067,0-0.146-0.034-0.236-0.102c-0.091-0.068-0.204-0.144-0.343-0.226c-0.138-0.082-0.304-0.156-0.498-0.225
			c-0.193-0.068-0.429-0.102-0.704-0.102c-0.261,0-0.49,0.034-0.69,0.104s-0.367,0.165-0.501,0.285s-0.235,0.261-0.303,0.423
			s-0.103,0.337-0.103,0.525c0,0.239,0.06,0.438,0.177,0.597c0.118,0.158,0.274,0.293,0.469,0.405
			c0.193,0.111,0.414,0.209,0.66,0.291c0.245,0.082,0.497,0.167,0.756,0.255c0.258,0.088,0.51,0.187,0.756,0.297
			s0.466,0.249,0.66,0.417c0.193,0.168,0.35,0.374,0.468,0.618s0.177,0.544,0.177,0.899c0,0.376-0.063,0.729-0.191,1.06
			c-0.129,0.33-0.315,0.617-0.562,0.86c-0.246,0.244-0.548,0.437-0.906,0.576c-0.357,0.141-0.765,0.21-1.221,0.21
			c-0.556,0-1.063-0.101-1.521-0.303c-0.459-0.202-0.85-0.475-1.174-0.819l0.336-0.552c0.032-0.044,0.071-0.081,0.117-0.111
			c0.046-0.029,0.097-0.045,0.153-0.045c0.084,0,0.18,0.045,0.288,0.136c0.107,0.09,0.243,0.188,0.405,0.297
			c0.161,0.107,0.357,0.207,0.588,0.297c0.229,0.09,0.511,0.135,0.843,0.135c0.275,0,0.521-0.038,0.738-0.114
			c0.216-0.075,0.398-0.183,0.549-0.32c0.149-0.139,0.265-0.304,0.345-0.495c0.08-0.192,0.12-0.406,0.12-0.643
			c0-0.26-0.06-0.473-0.177-0.639c-0.118-0.166-0.273-0.305-0.465-0.417c-0.192-0.112-0.411-0.207-0.657-0.285
			s-0.498-0.158-0.756-0.24c-0.259-0.081-0.511-0.177-0.757-0.284c-0.245-0.108-0.465-0.248-0.656-0.42
			c-0.192-0.173-0.348-0.388-0.465-0.646c-0.118-0.258-0.178-0.577-0.178-0.957c0-0.304,0.06-0.598,0.178-0.882
			c0.117-0.284,0.288-0.536,0.513-0.756c0.224-0.22,0.501-0.396,0.831-0.528s0.709-0.198,1.137-0.198
			c0.48,0,0.918,0.076,1.314,0.229c0.396,0.152,0.741,0.372,1.038,0.66L39.772,158.354z"/>
		<path fill="#FFFFFF" d="M47.625,157.01v0.947h-4.128v2.856h3.342v0.912h-3.342v2.934h4.128v0.948h-5.298v-8.598L47.625,157.01
			L47.625,157.01z"/>
		<path fill="#FFFFFF" d="M53.734,164.762c0.232,0,0.445-0.012,0.639-0.033c0.194-0.022,0.377-0.055,0.55-0.099
			c0.172-0.044,0.334-0.098,0.485-0.159c0.152-0.063,0.304-0.133,0.456-0.213v-1.896h-1.332c-0.076,0-0.137-0.021-0.183-0.065
			c-0.046-0.045-0.069-0.099-0.069-0.162v-0.66h2.641v3.3c-0.217,0.156-0.441,0.292-0.676,0.408
			c-0.233,0.116-0.483,0.213-0.75,0.291c-0.266,0.078-0.551,0.136-0.854,0.174c-0.305,0.038-0.634,0.057-0.99,0.057
			c-0.624,0-1.196-0.106-1.716-0.32c-0.521-0.214-0.968-0.515-1.344-0.9s-0.669-0.849-0.879-1.389
			c-0.211-0.54-0.315-1.135-0.315-1.782c0-0.656,0.103-1.254,0.309-1.794s0.5-1.003,0.883-1.389
			c0.382-0.387,0.844-0.686,1.386-0.897s1.148-0.318,1.821-0.318c0.34,0,0.655,0.025,0.947,0.075s0.563,0.122,0.813,0.216
			c0.25,0.095,0.48,0.208,0.692,0.343c0.212,0.134,0.41,0.284,0.595,0.452l-0.33,0.528c-0.068,0.108-0.156,0.162-0.265,0.162
			c-0.063,0-0.134-0.021-0.21-0.066c-0.1-0.056-0.212-0.124-0.336-0.204c-0.124-0.079-0.274-0.156-0.453-0.23
			c-0.178-0.074-0.388-0.137-0.63-0.189s-0.528-0.077-0.86-0.077c-0.484,0-0.923,0.078-1.314,0.236s-0.726,0.384-1.002,0.678
			c-0.276,0.295-0.488,0.65-0.636,1.068c-0.148,0.418-0.223,0.887-0.223,1.407c0,0.544,0.077,1.029,0.231,1.455
			s0.371,0.787,0.651,1.083c0.279,0.296,0.611,0.521,0.996,0.678C52.846,164.684,53.27,164.762,53.734,164.762z"/>
		<path fill="#FFFFFF" d="M62.649,164.684c0.356,0,0.674-0.061,0.954-0.18c0.28-0.12,0.518-0.288,0.711-0.505
			c0.194-0.216,0.342-0.474,0.444-0.773c0.102-0.3,0.153-0.63,0.153-0.99v-5.226h1.157v5.226c0,0.496-0.079,0.956-0.236,1.38
			c-0.158,0.424-0.385,0.791-0.679,1.102c-0.294,0.31-0.652,0.553-1.076,0.729c-0.425,0.176-0.9,0.264-1.429,0.264
			c-0.527,0-1.004-0.088-1.428-0.264s-0.784-0.419-1.08-0.729c-0.296-0.311-0.523-0.678-0.681-1.102
			c-0.158-0.424-0.237-0.884-0.237-1.38v-5.226h1.158v5.22c0,0.36,0.051,0.689,0.153,0.99c0.102,0.3,0.249,0.558,0.443,0.773
			s0.433,0.386,0.714,0.507C61.974,164.623,62.293,164.684,62.649,164.684z"/>
		<path fill="#FFFFFF" d="M69.946,162.02v3.588h-1.158v-8.598h2.43c0.544,0,1.015,0.055,1.41,0.165
			c0.396,0.109,0.723,0.269,0.981,0.477c0.258,0.208,0.448,0.459,0.572,0.753s0.187,0.623,0.187,0.987
			c0,0.304-0.048,0.588-0.145,0.852c-0.096,0.265-0.234,0.501-0.417,0.711c-0.182,0.21-0.403,0.39-0.666,0.537
			c-0.262,0.148-0.559,0.261-0.891,0.336c0.144,0.084,0.272,0.206,0.384,0.366l2.508,3.414H74.11c-0.212,0-0.368-0.082-0.469-0.246
			l-2.231-3.072c-0.068-0.096-0.143-0.165-0.222-0.207c-0.08-0.042-0.2-0.063-0.36-0.063H69.946z M69.946,161.174h1.218
			c0.34,0,0.639-0.041,0.896-0.123c0.259-0.082,0.475-0.198,0.648-0.349c0.174-0.149,0.305-0.329,0.393-0.537
			c0.089-0.208,0.133-0.438,0.133-0.689c0-0.512-0.169-0.898-0.508-1.158c-0.338-0.26-0.841-0.39-1.509-0.39h-1.271V161.174z"/>
		<path fill="#FFFFFF" d="M78.375,165.608h-1.164v-8.598h1.164V165.608z"/>
		<path fill="#FFFFFF" d="M88.732,161.312c0,0.644-0.103,1.229-0.306,1.758c-0.204,0.528-0.492,0.98-0.864,1.356
			s-0.818,0.667-1.338,0.873c-0.521,0.206-1.097,0.309-1.729,0.309H81.28v-8.598h3.216c0.632,0,1.208,0.103,1.729,0.309
			c0.52,0.206,0.966,0.498,1.338,0.876s0.66,0.831,0.864,1.359C88.629,160.082,88.732,160.668,88.732,161.312z M87.538,161.312
			c0-0.528-0.071-1-0.216-1.416c-0.144-0.416-0.348-0.769-0.612-1.056c-0.264-0.288-0.584-0.509-0.96-0.66
			c-0.376-0.152-0.794-0.229-1.254-0.229H82.45v6.714h2.046c0.46,0,0.878-0.075,1.254-0.228s0.696-0.371,0.96-0.657
			c0.265-0.286,0.469-0.637,0.612-1.053C87.466,162.312,87.538,161.84,87.538,161.312z"/>
		<path fill="#FFFFFF" d="M97.738,165.608h-0.9c-0.104,0-0.188-0.026-0.252-0.078c-0.063-0.052-0.112-0.118-0.144-0.198
			l-0.805-2.075H91.78l-0.804,2.075c-0.028,0.072-0.076,0.137-0.145,0.192s-0.152,0.084-0.252,0.084h-0.9l3.438-8.598h1.182
			L97.738,165.608z M92.104,162.416h3.21l-1.351-3.498c-0.088-0.216-0.174-0.485-0.258-0.81c-0.044,0.164-0.087,0.315-0.129,0.453
			s-0.083,0.259-0.123,0.363L92.104,162.416z"/>
		<path fill="#FFFFFF" d="M106.875,161.312c0,0.644-0.103,1.229-0.306,1.758c-0.204,0.528-0.492,0.98-0.864,1.356
			s-0.818,0.667-1.338,0.873c-0.521,0.206-1.097,0.309-1.729,0.309h-3.216v-8.598h3.216c0.632,0,1.208,0.103,1.729,0.309
			c0.52,0.206,0.966,0.498,1.338,0.876s0.66,0.831,0.864,1.359C106.773,160.082,106.875,160.668,106.875,161.312z M105.681,161.312
			c0-0.528-0.071-1-0.216-1.416c-0.144-0.416-0.348-0.769-0.612-1.056c-0.264-0.288-0.584-0.509-0.96-0.66
			c-0.376-0.152-0.794-0.229-1.254-0.229h-2.046v6.714h2.046c0.46,0,0.878-0.075,1.254-0.228s0.696-0.371,0.96-0.657
			c0.265-0.286,0.469-0.637,0.612-1.053C105.61,162.312,105.681,161.84,105.681,161.312z"/>
		<path fill="#FFFFFF" d="M113.253,162.392v3.216h-1.158v-8.598h2.538c0.544,0,1.017,0.063,1.419,0.188s0.735,0.306,0.999,0.537
			c0.264,0.232,0.461,0.512,0.591,0.84s0.195,0.694,0.195,1.099c0,0.399-0.07,0.766-0.21,1.098
			c-0.141,0.332-0.346,0.618-0.615,0.858c-0.271,0.239-0.605,0.427-1.005,0.561c-0.4,0.134-0.858,0.201-1.374,0.201L113.253,162.392
			L113.253,162.392z M113.253,161.468h1.38c0.332,0,0.625-0.044,0.879-0.133c0.254-0.088,0.467-0.211,0.639-0.368
			c0.172-0.158,0.302-0.348,0.391-0.567c0.088-0.22,0.132-0.462,0.132-0.726c0-0.549-0.169-0.977-0.507-1.284
			c-0.339-0.309-0.85-0.462-1.533-0.462h-1.38L113.253,161.468L113.253,161.468z"/>
		<path fill="#FFFFFF" d="M121.185,162.02v3.588h-1.158v-8.598h2.43c0.544,0,1.015,0.055,1.41,0.165
			c0.396,0.109,0.723,0.269,0.981,0.477c0.258,0.208,0.448,0.459,0.572,0.753s0.187,0.623,0.187,0.987
			c0,0.304-0.048,0.588-0.145,0.852c-0.096,0.265-0.234,0.501-0.417,0.711c-0.182,0.21-0.403,0.39-0.666,0.537
			c-0.262,0.148-0.559,0.261-0.891,0.336c0.144,0.084,0.272,0.206,0.384,0.366l2.508,3.414h-1.031c-0.212,0-0.368-0.082-0.469-0.246
			l-2.231-3.072c-0.068-0.096-0.143-0.165-0.222-0.207c-0.08-0.042-0.2-0.063-0.36-0.063H121.185z M121.185,161.174h1.218
			c0.34,0,0.639-0.041,0.896-0.123c0.259-0.082,0.475-0.198,0.648-0.349c0.174-0.149,0.305-0.329,0.393-0.537
			c0.089-0.208,0.133-0.438,0.133-0.689c0-0.512-0.169-0.898-0.508-1.158c-0.338-0.26-0.841-0.39-1.509-0.39h-1.271V161.174z"/>
		<path fill="#FFFFFF" d="M129.615,165.608h-1.164v-8.598h1.164V165.608z"/>
		<path fill="#FFFFFF" d="M131.523,157.01h0.93c0.104,0,0.188,0.025,0.253,0.078c0.063,0.052,0.111,0.117,0.144,0.197l2.43,6.066
			c0.057,0.136,0.107,0.284,0.153,0.444c0.046,0.159,0.091,0.325,0.135,0.497c0.036-0.172,0.075-0.338,0.117-0.497
			c0.042-0.16,0.091-0.309,0.147-0.444l2.418-6.066c0.027-0.067,0.075-0.131,0.144-0.188c0.068-0.059,0.152-0.087,0.252-0.087h0.937
			l-3.505,8.598h-1.05L131.523,157.01z"/>
		<path fill="#FFFFFF" d="M147.537,165.608h-0.9c-0.104,0-0.188-0.026-0.252-0.078c-0.063-0.052-0.112-0.118-0.144-0.198
			l-0.805-2.075h-3.857l-0.804,2.075c-0.028,0.072-0.076,0.137-0.145,0.192s-0.152,0.084-0.252,0.084h-0.9l3.438-8.598h1.182
			L147.537,165.608z M141.903,162.416h3.21l-1.351-3.498c-0.088-0.216-0.174-0.485-0.258-0.81c-0.044,0.164-0.087,0.315-0.129,0.453
			s-0.083,0.259-0.123,0.363L141.903,162.416z"/>
		<path fill="#FFFFFF" d="M156.675,161.312c0,0.644-0.103,1.229-0.306,1.758c-0.204,0.528-0.492,0.98-0.864,1.356
			s-0.818,0.667-1.338,0.873c-0.521,0.206-1.097,0.309-1.729,0.309h-3.216v-8.598h3.216c0.632,0,1.208,0.103,1.729,0.309
			c0.52,0.206,0.966,0.498,1.338,0.876s0.66,0.831,0.864,1.359C156.573,160.082,156.675,160.668,156.675,161.312z M155.481,161.312
			c0-0.528-0.071-1-0.216-1.416c-0.144-0.416-0.348-0.769-0.612-1.056c-0.264-0.288-0.584-0.509-0.96-0.66
			c-0.376-0.152-0.794-0.229-1.254-0.229h-2.046v6.714h2.046c0.46,0,0.878-0.075,1.254-0.228s0.696-0.371,0.96-0.657
			c0.265-0.286,0.469-0.637,0.612-1.053C155.41,162.312,155.481,161.84,155.481,161.312z"/>
		<path fill="#FFFFFF" d="M165.681,165.608h-0.9c-0.104,0-0.188-0.026-0.252-0.078c-0.063-0.052-0.112-0.118-0.144-0.198
			l-0.805-2.075h-3.857l-0.804,2.075c-0.028,0.072-0.076,0.137-0.145,0.192s-0.152,0.084-0.252,0.084h-0.9l3.438-8.598h1.182
			L165.681,165.608z M160.047,162.416h3.21l-1.351-3.498c-0.088-0.216-0.174-0.485-0.258-0.81c-0.044,0.164-0.087,0.315-0.129,0.453
			s-0.083,0.259-0.123,0.363L160.047,162.416z"/>
	</g>
</g>
<path fill="#FFFFFF" d="M96.821,11.926c-19.338,0-36.122,9.532-44.56,23.51c8.438,13.978,25.222,23.51,44.56,23.51
	s36.122-9.532,44.56-23.51C132.942,21.459,116.159,11.926,96.821,11.926z M97.411,49.508c-7.543,0-13.679-6.136-13.679-13.679
	c0-7.542,6.136-13.678,13.679-13.678c0.549,0,1.122,0.042,1.802,0.132c0.147,0.02,0.266,0.129,0.297,0.274s-0.032,0.294-0.158,0.372
	c-2.186,1.36-3.491,3.691-3.491,6.235c0,4.058,3.301,7.36,7.359,7.36c2.889,0,5.523-1.713,6.709-4.364
	c0.061-0.135,0.209-0.214,0.348-0.206c0.147,0.011,0.273,0.114,0.312,0.257c0.331,1.206,0.499,2.424,0.499,3.619
	C111.088,43.372,104.953,49.508,97.411,49.508z"/>
</svg>
