<?xml version="1.0" encoding="utf-8"?>
<!-- Generator: Adobe Illustrator 17.0.0, SVG Export Plug-In . SVG Version: 6.00 Build 0)  -->
<!DOCTYPE svg PUBLIC "-//W3C//DTD SVG 1.1//EN" "http://www.w3.org/Graphics/SVG/1.1/DTD/svg11.dtd">
<svg version="1.1" id="Capa_1" xmlns="http://www.w3.org/2000/svg" xmlns:xlink="http://www.w3.org/1999/xlink" x="0px" y="0px"
	 width="110px" height="110px" viewBox="0 0 110 110" enable-background="new 0 0 110 110" xml:space="preserve">
<g>
	<g>
		<path fill="#FFFFFF" d="M4.899,59.988l3.559,11.794c0.379,1.256,1.705,1.967,2.961,1.588l3.304-0.997
			c1.257-0.379,1.968-1.705,1.588-2.961l-3.56-11.795c-0.379-1.256-1.706-1.967-2.962-1.588l-3.303,0.998
			C5.231,57.406,4.52,58.732,4.899,59.988z M99.578,37.71l-5.303-17.57c-0.617-2.046-2.777-3.204-4.823-2.587L14.502,40.179
			c-2.973,0.898-3.731,4.756-1.317,6.711l17.238,13.964c0.996,0.807,2.327,1.068,3.554,0.698l63.016-19.021
			C99.038,41.915,100.196,39.755,99.578,37.71z M98.013,66.266v6.752c0,1.04-0.843,1.884-1.884,1.883l-18.755-0.004
			c-0.499,0-0.978-0.198-1.331-0.551l-7.879-7.877c-1.007-1.007-0.576-2.723,0.787-3.135l27.285-8.239
			c0.996-0.301,1.559-1.351,1.258-2.347l-1.175-3.892c-0.301-0.996-1.351-1.559-2.347-1.259L32.1,66.272
			c-0.597,0.18-1.245,0.053-1.73-0.34L17.182,55.248c-0.396-0.321-0.969,0.064-0.822,0.552l5.651,18.727l0.279,0.921
			c0.301,0.995,1.351,1.558,2.347,1.258l32.412-9.781c0.664-0.2,1.385-0.02,1.876,0.471l14.14,14.138
			c0.353,0.353,0.832,0.552,1.331,0.552L96.13,82.09c1.04,0,1.883,0.843,1.883,1.883v6.756c0,1.04,0.843,1.883,1.883,1.883h3.423
			c1.04,0,1.883-0.843,1.883-1.883V66.266c0-1.04-0.843-1.883-1.883-1.883h-3.423C98.857,64.382,98.013,65.225,98.013,66.266z"/>
	</g>
</g>
</svg>
