<?xml version="1.0" encoding="utf-8"?>
<!-- Generator: Adobe Illustrator 17.0.0, SVG Export Plug-In . SVG Version: 6.00 Build 0)  -->
<!DOCTYPE svg PUBLIC "-//W3C//DTD SVG 1.1//EN" "http://www.w3.org/Graphics/SVG/1.1/DTD/svg11.dtd">
<svg version="1.1" id="Capa_1" xmlns="http://www.w3.org/2000/svg" xmlns:xlink="http://www.w3.org/1999/xlink" x="0px" y="0px"
	 width="110px" height="110px" viewBox="0 0 110 110" enable-background="new 0 0 110 110" xml:space="preserve">
<path fill="#FFFFFF" d="M33.275,30.044C47.843,35.679,62.187,36,76.737,29.957c0,1.305-0.035,2.333,0.02,3.357
	c0.018,0.34,0.182,0.773,0.431,0.982c0.948,0.793,1.366,1.829,1.53,2.994c0.841,5.994-1.109,8.993-4.941,13.433
	c-0.473,0.548-1.094,3.203-1.325,3.887c-1.214,3.599-3.04,6.811-5.763,9.485c-7.039,6.914-16.811,6.785-23.684-0.304
	c-2.522-2.602-4.241-5.672-5.422-9.08c-0.259-0.748-0.614-2.666-1.131-3.268c-3.401-3.957-5.562-7.226-5.326-12.553
	c0.078-1.764,0.228-3.538,1.885-4.712c0.195-0.138,0.243-0.571,0.251-0.87C33.294,32.307,33.275,31.305,33.275,30.044z"/>
<path fill="#FFFFFF" d="M79.553,25.843c-16.466,7.889-32.647,7.881-49.08,0.009c7.79-3.703,15.725-5.858,24.134-5.941
	C63.298,19.826,71.476,22.058,79.553,25.843z"/>
<path fill="#FFFFFF" d="M104.883,97.663c-0.226-6.481-2.054-12.505-5.243-18.125c-2.258-3.979-5.387-7.179-9.511-9.115
	c-5.808-2.727-11.765-5.139-17.667-7.663c-0.224-0.096-0.695-0.054-0.808,0.101c-0.838,1.153-1.808,2.265-2.375,3.549
	c-2.145,4.856-4.153,9.774-6.215,14.667c-0.14,0.333-0.311,0.653-0.533,1.115c-2.581-3.341-5.028-6.508-7.53-9.745
	c-2.54,3.29-4.973,6.442-7.533,9.759c-0.243-0.536-0.396-0.853-0.532-1.176c-1.572-3.737-3.126-7.481-4.718-11.209
	c-0.995-2.331-1.757-4.783-3.566-6.7c-0.416-0.441-0.681-0.593-1.245-0.35c-5.532,2.389-11.1,4.698-16.603,7.154
	c-3.294,1.47-6.123,3.666-8.304,6.547C7.638,82.894,5.39,90.239,5.109,98.236c-0.035,1.008,0.497,1.562,1.391,1.936
	c4.596,1.921,9.404,3.075,14.286,3.939c10.038,1.775,20.181,2.392,30.352,2.547c11.796,0.18,23.563-0.321,35.247-2.094
	c5.758-0.874,11.44-2.055,16.848-4.302C104.769,99.622,104.943,99.36,104.883,97.663z M21.143,77.162
	c-0.072,0.036-0.148,0.053-0.223,0.053c-0.184,0-0.36-0.102-0.448-0.276l-2.05-4.099c-0.124-0.247-0.023-0.547,0.224-0.671
	s0.547-0.022,0.671,0.224l2.05,4.099C21.49,76.738,21.39,77.038,21.143,77.162z M23.193,76.112
	c-0.072,0.036-0.148,0.053-0.223,0.053c-0.184,0-0.36-0.102-0.448-0.276l-2.049-4.1c-0.124-0.247-0.023-0.548,0.224-0.671
	c0.248-0.124,0.548-0.022,0.671,0.224l2.049,4.1C23.54,75.688,23.44,75.989,23.193,76.112z M25.242,75.113
	c-0.072,0.036-0.148,0.053-0.223,0.053c-0.184,0-0.36-0.102-0.448-0.276l-2.05-4.1c-0.124-0.247-0.023-0.547,0.224-0.671
	c0.247-0.125,0.547-0.022,0.671,0.224l2.05,4.1C25.59,74.689,25.49,74.989,25.242,75.113z M84.494,75.166
	c-0.075,0-0.151-0.017-0.224-0.053c-0.247-0.124-0.347-0.424-0.224-0.671l2.05-4.1c0.124-0.247,0.424-0.346,0.671-0.224
	c0.247,0.124,0.347,0.424,0.224,0.671l-2.05,4.1C84.854,75.064,84.677,75.166,84.494,75.166z M86.544,76.165
	c-0.075,0-0.151-0.017-0.224-0.053c-0.247-0.124-0.347-0.424-0.224-0.671l2.05-4.1c0.125-0.246,0.425-0.348,0.671-0.224
	c0.247,0.124,0.347,0.424,0.224,0.671l-2.05,4.1C86.904,76.063,86.727,76.165,86.544,76.165z M91.091,72.839l-2.05,4.099
	c-0.088,0.175-0.265,0.276-0.447,0.276c-0.075,0-0.151-0.017-0.224-0.053c-0.247-0.124-0.347-0.424-0.224-0.671l2.05-4.099
	c0.124-0.246,0.424-0.347,0.671-0.224C91.115,72.292,91.214,72.592,91.091,72.839z"/>
<path fill="#FFFFFF" d="M81.39,20.741c-0.119-2.294-1.106-4.322-2.54-6.067C72.888,7.424,65.035,3.673,55.802,3.33
	C47.001,3.003,39.4,6.406,33.044,12.483c-1.968,1.881-3.525,4.084-4.197,6.787c-0.427,1.72-0.547,3.433,0.471,5.103
	c17.149-8.358,34.231-8.352,51.702,0.161C81.172,23.107,81.451,21.915,81.39,20.741z M54.95,13.921
	c-1.908-0.035-3.388-1.612-3.353-3.574c0.032-1.839,1.636-3.38,3.472-3.335c1.934,0.047,3.433,1.618,3.39,3.552
	C58.416,12.454,56.848,13.955,54.95,13.921z"/>
</svg>
