<?xml version="1.0" encoding="utf-8"?>
<!-- Generator: Adobe Illustrator 17.0.0, SVG Export Plug-In . SVG Version: 6.00 Build 0)  -->
<!DOCTYPE svg PUBLIC "-//W3C//DTD SVG 1.1//EN" "http://www.w3.org/Graphics/SVG/1.1/DTD/svg11.dtd">
<svg version="1.1" id="Capa_1" xmlns="http://www.w3.org/2000/svg" xmlns:xlink="http://www.w3.org/1999/xlink" x="0px" y="0px"
	 width="130px" height="110px" viewBox="0 0 130 110" enable-background="new 0 0 130 110" xml:space="preserve">
<g>
	<g>
		<path fill="#FFFFFF" d="M94.812,70.456c-0.012,6.46,5.215,11.706,11.675,11.719c6.46,0.012,11.706-5.215,11.719-11.675
			c0.012-6.46-5.215-11.707-11.675-11.719h-0.022C100.058,58.781,94.824,64.005,94.812,70.456z"/>
		<path fill="#FFFFFF" d="M97.994,84.423c-6.116,1.814-10.31,7.435-10.307,13.815v3.334c0,1.865,1.512,3.378,3.378,3.378l0,0h30.899
			c1.865,0,3.378-1.512,3.378-3.378l0,0v-3.345c0.004-6.379-4.191-12.001-10.307-13.815L97.994,84.423z"/>
	</g>
	<g>
		<path fill="#FFFFFF" d="M23.491,81.865c6.46,0,11.697-5.237,11.697-11.697c0-6.46-5.237-11.697-11.697-11.697
			s-11.697,5.237-11.697,11.697l0,0C11.794,76.628,17.031,81.865,23.491,81.865z"/>
		<path fill="#FFFFFF" d="M14.965,84.135C8.853,85.948,4.66,91.564,4.658,97.939v3.345c0,1.865,1.512,3.378,3.378,3.378v0.011
			h30.899c1.865,0,3.378-1.512,3.378-3.378l0,0v-3.356c0.004-6.379-4.191-12.001-10.307-13.815L14.965,84.135z"/>
	</g>
	<g>
		<path fill="#FFFFFF" d="M46.173,28.444c6.46,0,11.697-5.237,11.697-11.697c0-6.46-5.237-11.697-11.697-11.697
			s-11.697,5.237-11.697,11.697l0,0C34.476,23.207,39.713,28.444,46.173,28.444z"/>
		<path fill="#FFFFFF" d="M37.647,30.714c-6.112,1.813-10.305,7.428-10.307,13.804v3.345c0,1.865,1.512,3.378,3.378,3.378v0.011
			h30.899c1.865,0,3.378-1.512,3.378-3.378l0,0v-3.356c0.004-6.379-4.191-12.001-10.307-13.815L37.647,30.714z"/>
	</g>
	<g>
		<path fill="#FFFFFF" d="M87.693,28.444c6.46,0,11.697-5.237,11.697-11.697c0-6.46-5.237-11.697-11.697-11.697
			s-11.697,5.237-11.697,11.697l0,0C75.996,23.207,81.233,28.444,87.693,28.444z"/>
		<path fill="#FFFFFF" d="M79.168,30.714c-6.112,1.813-10.305,7.428-10.307,13.804v3.345c0,1.865,1.512,3.378,3.378,3.378v0.011
			h30.899c1.865,0,3.378-1.512,3.378-3.378l0,0v-3.356c0.004-6.379-4.191-12.001-10.307-13.815L79.168,30.714z"/>
	</g>
	<g>
		<path fill="#FFFFFF" d="M65,58.814c-6.46,0-11.697,5.237-11.697,11.697c0,6.46,5.237,11.697,11.697,11.697
			c6.46,0,11.697-5.237,11.697-11.697c0-0.011,0-0.022,0-0.033c0-6.46-5.237-11.697-11.697-11.697V58.814z"/>
		<path fill="#FFFFFF" d="M56.507,84.445c-6.125,1.801-10.334,7.419-10.339,13.804v3.356c0.018,1.853,1.525,3.345,3.378,3.345
			h30.909c1.865,0,3.378-1.512,3.378-3.378l0,0v-3.323c0.003-6.379-4.191-12.001-10.307-13.815L56.507,84.445z"/>
	</g>
</g>
</svg>
