<?xml version="1.0" encoding="utf-8"?>
<!-- Generator: Adobe Illustrator 17.0.0, SVG Export Plug-In . SVG Version: 6.00 Build 0)  -->
<!DOCTYPE svg PUBLIC "-//W3C//DTD SVG 1.1//EN" "http://www.w3.org/Graphics/SVG/1.1/DTD/svg11.dtd">
<svg version="1.1" id="Capa_1" xmlns="http://www.w3.org/2000/svg" xmlns:xlink="http://www.w3.org/1999/xlink" x="0px" y="0px"
	 width="130px" height="110px" viewBox="0 0 130 110" enable-background="new 0 0 130 110" xml:space="preserve">
<g>
	<g>
		<g>
			<g>
				<g>
					<path fill="#FFFFFF" d="M109.716,24.257c-0.072-1.26-0.986-2.313-2.224-2.561C85.564,17.307,66.843,3.52,66.658,3.382
						C65.667,2.644,64.307,2.65,63.323,3.4C62.585,3.962,44.989,17.198,22.51,21.697c-1.238,0.248-2.153,1.301-2.225,2.561
						c-1.801,31.53,12.992,54.212,25.721,67.686c4.776,5.058,9.258,8.797,12.178,11.042c1.675,1.287,3.027,2.233,3.866,2.799
						c1.567,1.06,2.018,1.363,2.883,1.379c0.036,0.001,0.071,0.001,0.106,0.001c0.853,0,1.368-0.344,2.725-1.253
						c0.735-0.493,1.926-1.315,3.409-2.437c2.584-1.951,6.579-5.198,10.945-9.593c8.201-8.256,14.731-17.449,19.404-27.322
						C107.804,53.289,110.561,39.057,109.716,24.257z M85.426,81.85c-8.42,10.558-17.122,16.99-20.425,19.237
						c-3.303-2.246-12.005-8.677-20.428-19.242C31.397,65.319,25.061,46.77,25.727,26.681C44.706,22.395,60.058,12.48,65.015,9.015
						c5.024,3.461,20.641,13.44,39.259,17.665C104.94,46.771,98.605,65.323,85.426,81.85z"/>
				</g>
			</g>
			<g>
				<g>
					<g>
						<path fill="#FFFFFF" d="M65,39.171c-2.951,0-5.343,2.392-5.343,5.343v4.602h10.686v-4.602h-0.001
							C70.343,41.563,67.951,39.171,65,39.171z"/>
					</g>
				</g>
				<g>
					<g>
						<path fill="#FFFFFF" d="M98.025,30.943c-17.982-3.599-33.024-14.808-33.024-14.808c-1.022,0.777-15.043,11.208-33.024,14.809
							c-2.37,41.493,33.002,62.975,33.024,62.963C65.023,93.919,100.395,72.437,98.025,30.943z M78.086,65.716
							c0,0.827-0.67,1.497-1.496,1.497H53.41c-0.826,0-1.496-0.67-1.496-1.496V50.611c0-0.826,0.67-1.496,1.496-1.496h1.496v-4.901
							c0-5.575,4.519-10.094,10.095-10.094c5.574,0,10.095,4.519,10.095,10.094v4.901h1.495c0.826,0,1.496,0.669,1.496,1.496V65.716
							z"/>
					</g>
				</g>
			</g>
		</g>
	</g>
</g>
</svg>
